<svg width="115" height="110" viewBox="0 0 115 110" fill="none" xmlns="http://www.w3.org/2000/svg">
<path d="M97.75 28.9474C100.8 28.9474 103.725 30.1673 105.882 32.3388C108.038 34.5102 109.25 37.4554 109.25 40.5263V79.6632C112.757 82.8474 115 87.4789 115 92.6316C115 102.242 107.295 110 97.75 110C88.205 110 80.5 102.242 80.5 92.6316C80.5 87.4789 82.7425 82.8474 86.25 79.6632V40.5263C86.25 34.1579 91.425 28.9474 97.75 28.9474ZM97.75 34.7368C94.5875 34.7368 92 37.3421 92 40.5263V46.3158H103.5V40.5263C103.5 37.3421 100.912 34.7368 97.75 34.7368ZM57.5 15.5737L28.75 41.6263V86.8421H69.575L69 92.6316L69.575 98.4211H17.25V52.1053H0L57.5 0L82.8 22.9263C79.8675 25.4737 77.625 28.7737 76.1875 32.4789L57.5 15.5737Z" fill="#7ED957"/>
</svg>
