<svg width="15" height="14" viewBox="0 0 15 14" fill="none" xmlns="http://www.w3.org/2000/svg">
<path fill-rule="evenodd" clip-rule="evenodd" d="M14.7157 1.54544C14.8057 1.46147 14.8772 1.36178 14.926 1.25204C14.9748 1.1423 14.9999 1.02466 15 0.905851C15.0001 0.787039 14.9751 0.669376 14.9264 0.559581C14.8778 0.449785 14.8065 0.350006 14.7165 0.265941C14.6265 0.181877 14.5197 0.115173 14.4022 0.0696381C14.2846 0.0241032 14.1585 0.000629137 14.0312 0.000556112C13.904 0.000483087 13.7779 0.0238125 13.6602 0.0692125C13.5426 0.114612 13.4357 0.181194 13.3456 0.265155L7.49988 5.72129L1.6558 0.265155C1.4739 0.0953789 1.22719 -1.78888e-09 0.969943 0C0.712698 1.78888e-09 0.465989 0.0953789 0.28409 0.265155C0.10219 0.434931 1.91663e-09 0.665196 0 0.905295C-1.91662e-09 1.14539 0.10219 1.37566 0.28409 1.54544L6.12985 7L0.28409 12.4546C0.194022 12.5386 0.122577 12.6384 0.0738324 12.7483C0.0250882 12.8581 0 12.9758 0 13.0947C0 13.2136 0.0250882 13.3313 0.0738324 13.4411C0.122577 13.551 0.194022 13.6508 0.28409 13.7348C0.465989 13.9046 0.712698 14 0.969943 14C1.09732 14 1.22345 13.9766 1.34112 13.9311C1.4588 13.8856 1.56573 13.8189 1.6558 13.7348L7.49988 8.27871L13.3456 13.7348C13.5275 13.9044 13.7742 13.9996 14.0312 13.9994C14.2883 13.9993 14.5348 13.9038 14.7165 13.7341C14.8982 13.5643 15.0002 13.3341 15 13.0941C14.9998 12.8542 14.8976 12.6241 14.7157 12.4546L8.8699 7L14.7157 1.54544Z" fill="black"/>
</svg>
